<?xml version="1.0" encoding="utf-8"?>
<svg xmlns="http://www.w3.org/2000/svg" xmlns:xlink="http://www.w3.org/1999/xlink" style="margin: auto; background: rgb(1, 9, 18); display: block; z-index: 1; position: relative; shape-rendering: auto;" width="1920" height="1024" preserveAspectRatio="xMidYMid" viewBox="0 0 1920 1024">
<g transform="translate(960,512) scale(1,1) translate(-960,-512)"><linearGradient id="lg-0.8788369349977345" x1="0" x2="1" y1="0" y2="0">
  <stop stop-color="#81e6d9" offset="0"></stop>
  <stop stop-color="#7928ca" offset="1"></stop>
</linearGradient><path d="M 1551 512 C 1551 572 1430 691 1402 744 C 1374 797 1273 861 1224 895 C 1175 929 1071 927 1011 934 C 951 941 868 922 812 901 C 756 880 585 925 545 880 C 505 835 402 711 388 653 C 374 595 428 442 442 384 C 456 326 566 244 606 199 C 646 154 736 89 792 68 C 848 47 952 78 1012 85 C 1072 92 1190 74 1239 108 C 1288 142 1442 191 1470 244 C 1498 297 1551 452 1551 512" fill="url(#lg-0.8788369349977345)" opacity="0.1">
  <animate attributeName="d" dur="16.666666666666664s" repeatCount="indefinite" keyTimes="0;0.3333333333333333;0.6666666666666666;1" calcmod="spline" keySplines="0.3 0.1 0.7 0.9;0.3 0.1 0.7 0.9;0.3 0.1 0.7 0.9" begin="-11.111111111111109s" values="M 1551 512 C 1551 572 1430 691 1402 744 C 1374 797 1273 861 1224 895 C 1175 929 1071 927 1011 934 C 951 941 868 922 812 901 C 756 880 585 925 545 880 C 505 835 402 711 388 653 C 374 595 428 442 442 384 C 456 326 566 244 606 199 C 646 154 736 89 792 68 C 848 47 952 78 1012 85 C 1072 92 1190 74 1239 108 C 1288 142 1442 191 1470 244 C 1498 297 1551 452 1551 512;M 1512 512 C 1512 577 1451 696 1421 754 C 1391 812 1335 941 1281 978 C 1227 1015 1071 879 1006 887 C 941 895 860 960 799 937 C 738 914 592 926 549 877 C 506 828 345 731 329 668 C 313 605 440 451 456 388 C 472 325 543 230 586 181 C 629 132 759 165 820 142 C 881 119 937 160 1002 168 C 1067 176 1180 79 1234 116 C 1288 153 1480 165 1510 223 C 1540 281 1512 447 1512 512;M 1520 512 C 1520 579 1533 737 1502 796 C 1471 855 1337 940 1282 978 C 1227 1016 1084 978 1018 986 C 952 994 885 900 822 876 C 759 852 595 924 551 874 C 507 824 449 707 433 642 C 417 577 365 434 381 369 C 397 304 509 201 553 151 C 597 101 751 149 813 125 C 875 101 953 21 1019 29 C 1085 37 1170 89 1225 127 C 1280 165 1418 196 1449 255 C 1480 314 1520 445 1520 512;M 1551 512 C 1551 572 1430 691 1402 744 C 1374 797 1273 861 1224 895 C 1175 929 1071 927 1011 934 C 951 941 868 922 812 901 C 756 880 585 925 545 880 C 505 835 402 711 388 653 C 374 595 428 442 442 384 C 456 326 566 244 606 199 C 646 154 736 89 792 68 C 848 47 952 78 1012 85 C 1072 92 1190 74 1239 108 C 1288 142 1442 191 1470 244 C 1498 297 1551 452 1551 512"></animate>
</path><path d="M 1577 512 C 1577 579 1513 727 1482 786 C 1451 845 1319 914 1264 952 C 1209 990 1074 896 1008 904 C 942 912 839 1018 777 994 C 715 970 614 907 570 857 C 526 807 440 709 424 644 C 408 579 293 417 309 352 C 325 287 504 197 548 147 C 592 97 760 173 822 149 C 884 125 937 150 1003 158 C 1069 166 1158 107 1213 145 C 1268 183 1397 207 1428 266 C 1459 325 1577 445 1577 512" fill="url(#lg-0.8788369349977345)" opacity="0.1">
  <animate attributeName="d" dur="16.666666666666664s" repeatCount="indefinite" keyTimes="0;0.3333333333333333;0.6666666666666666;1" calcmod="spline" keySplines="0.3 0.1 0.7 0.9;0.3 0.1 0.7 0.9;0.3 0.1 0.7 0.9" begin="-11.111111111111109s" values="M 1577 512 C 1577 579 1513 727 1482 786 C 1451 845 1319 914 1264 952 C 1209 990 1074 896 1008 904 C 942 912 839 1018 777 994 C 715 970 614 907 570 857 C 526 807 440 709 424 644 C 408 579 293 417 309 352 C 325 287 504 197 548 147 C 592 97 760 173 822 149 C 884 125 937 150 1003 158 C 1069 166 1158 107 1213 145 C 1268 183 1397 207 1428 266 C 1459 325 1577 445 1577 512;M 1461 512 C 1461 572 1435 693 1407 746 C 1379 799 1309 913 1260 947 C 1211 981 1069 911 1009 918 C 949 925 849 972 793 951 C 737 930 639 877 599 832 C 559 787 403 711 389 653 C 375 595 407 437 421 379 C 435 321 584 259 624 214 C 664 169 752 133 808 112 C 864 91 951 89 1011 96 C 1071 103 1142 143 1191 177 C 1240 211 1406 210 1434 263 C 1462 316 1461 452 1461 512;M 1549 512 C 1549 574 1451 699 1422 754 C 1393 809 1275 860 1224 895 C 1173 930 1074 931 1012 939 C 950 947 884 887 826 865 C 768 843 661 860 620 813 C 579 766 456 701 441 640 C 426 579 326 420 341 359 C 356 298 544 227 585 180 C 626 133 762 165 820 143 C 878 121 943 137 1005 145 C 1067 153 1196 61 1247 96 C 1298 131 1386 218 1415 273 C 1444 328 1549 450 1549 512;M 1577 512 C 1577 579 1513 727 1482 786 C 1451 845 1319 914 1264 952 C 1209 990 1074 896 1008 904 C 942 912 839 1018 777 994 C 715 970 614 907 570 857 C 526 807 440 709 424 644 C 408 579 293 417 309 352 C 325 287 504 197 548 147 C 592 97 760 173 822 149 C 884 125 937 150 1003 158 C 1069 166 1158 107 1213 145 C 1268 183 1397 207 1428 266 C 1459 325 1577 445 1577 512"></animate>
</path><path d="M 1512 512 C 1512 580 1483 710 1452 770 C 1421 830 1327 924 1271 962 C 1215 1000 1077 916 1010 924 C 943 932 840 1019 777 995 C 714 971 559 958 514 907 C 469 856 386 723 370 657 C 354 591 423 450 439 384 C 455 318 446 148 491 97 C 536 46 729 92 792 68 C 855 44 948 51 1015 59 C 1082 67 1236 -7 1292 31 C 1348 69 1478 164 1509 224 C 1540 284 1512 444 1512 512" fill="url(#lg-0.8788369349977345)" opacity="0.1">
  <animate attributeName="d" dur="16.666666666666664s" repeatCount="indefinite" keyTimes="0;0.3333333333333333;0.6666666666666666;1" calcmod="spline" keySplines="0.3 0.1 0.7 0.9;0.3 0.1 0.7 0.9;0.3 0.1 0.7 0.9" begin="-11.111111111111109s" values="M 1512 512 C 1512 580 1483 710 1452 770 C 1421 830 1327 924 1271 962 C 1215 1000 1077 916 1010 924 C 943 932 840 1019 777 995 C 714 971 559 958 514 907 C 469 856 386 723 370 657 C 354 591 423 450 439 384 C 455 318 446 148 491 97 C 536 46 729 92 792 68 C 855 44 948 51 1015 59 C 1082 67 1236 -7 1292 31 C 1348 69 1478 164 1509 224 C 1540 284 1512 444 1512 512;M 1509 512 C 1509 569 1432 694 1405 745 C 1378 796 1268 858 1221 890 C 1174 922 1052 790 995 797 C 938 804 869 912 816 892 C 763 872 611 898 573 855 C 535 812 481 689 467 633 C 453 577 415 437 429 381 C 443 325 608 277 646 234 C 684 191 784 207 837 187 C 890 167 951 112 1008 119 C 1065 126 1157 126 1204 158 C 1251 190 1354 240 1381 291 C 1408 342 1509 455 1509 512;M 1483 512 C 1483 571 1506 732 1479 784 C 1452 836 1254 835 1206 868 C 1158 901 1057 828 999 835 C 941 842 877 896 822 875 C 767 854 641 873 602 829 C 563 785 480 691 466 634 C 452 577 454 448 468 391 C 482 334 540 219 579 175 C 618 131 777 196 832 175 C 887 154 949 121 1007 128 C 1065 135 1176 94 1225 127 C 1274 160 1372 230 1399 282 C 1426 334 1483 453 1483 512;M 1512 512 C 1512 580 1483 710 1452 770 C 1421 830 1327 924 1271 962 C 1215 1000 1077 916 1010 924 C 943 932 840 1019 777 995 C 714 971 559 958 514 907 C 469 856 386 723 370 657 C 354 591 423 450 439 384 C 455 318 446 148 491 97 C 536 46 729 92 792 68 C 855 44 948 51 1015 59 C 1082 67 1236 -7 1292 31 C 1348 69 1478 164 1509 224 C 1540 284 1512 444 1512 512"></animate>
</path></g>
</svg>